<svg width="22" height="24" viewBox="0 0 22 24" fill="none" xmlns="http://www.w3.org/2000/svg">
<path d="M21.4938 11.5783C21.4938 12.2228 21.2926 12.8514 20.9178 13.3772C20.5431 13.903 20.0133 14.3 19.4019 14.5134C19.2372 14.5482 19.0738 14.5912 18.9123 14.6399C17.7933 14.9868 16.8074 15.6653 16.0865 16.5845C15.3655 17.5038 14.9439 18.62 14.8779 19.784C14.8651 20.02 14.8666 20.2565 14.8824 20.4923C14.8217 21.0476 14.6118 21.5764 14.2747 22.0231C13.9376 22.4697 13.4857 22.8179 12.9666 23.0309C12.4475 23.2439 11.8803 23.3139 11.3246 23.2336C10.7689 23.1533 10.2452 22.9255 9.80849 22.5744C9.37183 22.2232 9.03832 21.7615 8.84302 21.2378C8.64771 20.7142 8.59781 20.1479 8.69857 19.5984C8.79932 19.0489 9.04701 18.5366 9.4156 18.1152C9.78419 17.6938 10.2601 17.379 10.7933 17.2037C10.9145 17.1763 11.0353 17.1445 11.1557 17.1082C12.3097 16.7632 13.3256 16.0665 14.06 15.1164C14.7945 14.1663 15.2105 13.0108 15.2492 11.8129C15.2539 11.6675 15.2539 11.522 15.2492 11.3766C15.1966 10.199 14.7798 9.06633 14.0557 8.13328C13.3315 7.20022 12.3354 6.5123 11.2034 6.16349C11.0603 6.11859 10.9154 6.08064 10.7698 6.04839C10.2375 5.86525 9.76486 5.54251 9.40178 5.11426C9.03871 4.68602 8.79868 4.16817 8.70707 3.61545C8.61546 3.06272 8.67566 2.49565 8.88132 1.97414C9.08698 1.45264 9.43045 0.99608 9.87544 0.652702C10.3204 0.309324 10.8504 0.0918829 11.4094 0.023356C11.9684 -0.0451709 12.5356 0.0377611 13.0511 0.263389C13.5666 0.489017 14.0112 0.848961 14.3381 1.30519C14.6649 1.76141 14.8617 2.29697 14.9078 2.85528C14.9021 3.01212 14.9033 3.17149 14.9078 3.32644C14.9656 4.50771 15.3897 5.64221 16.1219 6.57407C16.854 7.50593 17.8584 8.18942 18.9969 8.53065C19.1109 8.5648 19.2253 8.59495 19.3402 8.62109C19.9667 8.82541 20.5122 9.22138 20.899 9.75245C21.2857 10.2835 21.4939 10.9226 21.4938 11.5783Z" fill="white"/>
<path d="M0.0063085 19.5007C0.0481209 18.8584 0.289113 18.2448 0.696095 17.7444C1.10308 17.244 1.65603 16.8815 2.27879 16.7066C2.44835 16.6826 2.61536 16.6506 2.77983 16.6105C4.03787 16.3075 5.15648 15.5916 5.95497 14.5783C6.75347 13.565 7.18521 12.3136 7.18047 11.0262C7.27682 10.4762 7.52028 9.96209 7.88528 9.53793C8.25028 9.11377 8.72337 8.79518 9.25486 8.61559C9.78636 8.43601 10.3567 8.40207 10.9059 8.51732C11.4551 8.63258 11.963 8.89279 12.3763 9.27063C12.7895 9.64847 13.0929 10.13 13.2545 10.6647C13.4161 11.1993 13.43 11.7674 13.2948 12.3093C13.1595 12.8512 12.8801 13.3468 12.4858 13.7442C12.0915 14.1416 11.5969 14.4261 11.054 14.5678C10.9268 14.588 10.8007 14.6127 10.6757 14.6418C9.50194 14.9135 8.44363 15.545 7.65007 16.4471C6.85651 17.3492 6.36776 18.4764 6.25278 19.6695C6.23879 19.8099 6.23116 19.951 6.22798 20.092C6.17113 20.5335 6.0197 20.9578 5.7839 21.3361C5.54811 21.7144 5.23345 22.0381 4.86116 22.2851C4.48887 22.5321 4.06763 22.6968 3.62587 22.7681C3.18411 22.8394 2.73212 22.8155 2.30041 22.6982C2.18914 22.6565 2.07723 22.6185 1.96342 22.585C1.35226 22.3413 0.834047 21.9119 0.482625 21.3581C0.131204 20.8043 -0.0354881 20.1543 0.0063085 19.5007Z" fill="white"/>
</svg>
